<svg xmlns="http://www.w3.org/2000/svg" viewBox="0 0 98 35.42"><defs><style>.cls-1{fill:#fff}</style></defs><title>spin-logo</title><g id="Layer_2" data-name="Layer 2"><path class="cls-1" d="M98 3.17A1.18 1.18 0 0 0 96.83 2h-6.1a1.13 1.13 0 0 0-1.12 1.12v18.22L80.52 3a1.58 1.58 0 0 0-1.58-1h-8.39a1.14 1.14 0 0 0-1.17 1.12v30.44a1.12 1.12 0 0 0 1.17 1.12h6.1a1.08 1.08 0 0 0 1.12-1.12v-19l9.6 18.92a2.38 2.38 0 0 0 2.42 1.17h7A1.14 1.14 0 0 0 98 33.56V3.17zM56.17 5a5 5 0 1 0 5-5 5 5 0 0 0-5 5m9 28.57V12.68a1.06 1.06 0 0 0-1.07-1.07h-5.88a1.1 1.1 0 0 0-1.12 1.07v20.88a1.13 1.13 0 0 0 1.12 1.12h5.87a1.09 1.09 0 0 0 1.07-1.12M41.88 9.6a3.41 3.41 0 0 1 3.59 3.54 3.47 3.47 0 0 1-3.68 3.59h-5.18V9.6zm12.35 3.68c0-6.2-4.24-11.23-10.9-11.23H29.39a1.14 1.14 0 0 0-1.17 1.12v30.39a1.11 1.11 0 0 0 1.17 1.12h6.11a1.1 1.1 0 0 0 1.12-1.12v-9.28h5.31c7.93 0 12.3-4.71 12.3-11M1 11.74c0 5.13 3.26 7.69 6.43 9 4.24 1.82 9.18 2.05 9.18 4.71 0 1.26-1 2.38-3.22 2.38a8.39 8.39 0 0 1-6.31-3.03c-.47-.51-.79-.84-1.44-.84a1.69 1.69 0 0 0-1.12.42L.84 27.31A1.78 1.78 0 0 0 0 28.76a3.67 3.67 0 0 0 1 2.14c2 2.42 6.24 4.52 11.84 4.52 8.16 0 12.93-4.42 12.93-10.53a8.84 8.84 0 0 0-4.57-8c-2.8-1.63-6.34-2.15-8.9-3.31-1.58-.7-2.24-1.35-2.24-2.38.01-1.46 1.31-2.2 3.08-2.2a6 6 0 0 1 4.66 2.33 1.6 1.6 0 0 0 1.26.7 2 2 0 0 0 1.31-.51l3.45-3.12a1.71 1.71 0 0 0 .7-1.26c0-.42-.19-1-1.21-2.1a13.73 13.73 0 0 0-10-3.73C6.29 1.35 1 5.36 1 11.74" id="Layer_1-2" data-name="Layer 1"/></g></svg>